<svg xmlns="http://www.w3.org/2000/svg" width="212.359" height="49.76" viewBox="0 0 212.359 49.76"><g transform="translate(192.37 14.829)"><path d="M314.541,31.519c-.087.019-.206.012-.225-.056a3.574,3.574,0,0,0-1.167-1.379l.087-.156a3.126,3.126,0,0,1,1.441.574.681.681,0,0,1,.1.68C314.716,31.306,314.691,31.469,314.541,31.519Zm.53,1.934a11.724,11.724,0,0,0,.162,2.4.278.278,0,0,1-.119.156,1.3,1.3,0,0,1-.73-.143.7.7,0,0,1-.275-.474,15.592,15.592,0,0,0,.275-1.585.612.612,0,0,0-.119-.381,1.693,1.693,0,0,0-.761-.343l.012-.206c.368.031.923.012,1.079-.262l.761-1.31.493-.955.206.069A19.342,19.342,0,0,0,315.072,33.453Zm.368-4.124a.634.634,0,0,1-.262.206c-.137.031-.206-.1-.275-.187a4.3,4.3,0,0,0-1.135-1.547l.069-.137a5.68,5.68,0,0,1,1.285.555.888.888,0,0,1,.437.561A.712.712,0,0,1,315.44,29.329Zm2.926,5.328a12.728,12.728,0,0,1-2.87,1.535l-.125-.125a12.25,12.25,0,0,0,2.6-2.159,5.637,5.637,0,0,1,.749.58c.037.031.019.075,0,.119C318.615,34.669,318.472,34.619,318.366,34.657Zm3.569-5.646c-.137.05-.318.037-.437.137a8.367,8.367,0,0,0-.767.643,1.992,1.992,0,0,1,.368.343.081.081,0,0,1-.037.125l-.069.019h-1.928v.855h1.129l.312-.343a.154.154,0,0,1,.156,0,7.011,7.011,0,0,1,.605.43c.125.125-.125.231-.206.362l-.05.119c0,.786.012,1.4.031,2.14,0,.119-.087.175-.156.225a2.025,2.025,0,0,1-.518.175.139.139,0,0,1-.1-.125v-.281h-3.032v.1c0,.056-.1.125-.156.156-.156.1-.318.162-.474.243a.107.107,0,0,1-.156-.087l.031-1.535c.012-.68,0-1.354-.05-2a2.481,2.481,0,0,1,.505.225l.449.212h.936V30.29H317.6a3.385,3.385,0,0,0-.543.075l-.231-.349h3.032l.4-.474c.056-.069.137,0,.274.106a3.276,3.276,0,0,0,.231-.7h-3.831a1.483,1.483,0,0,1-.468,1.179.532.532,0,0,1-.406.119.428.428,0,0,1-.293-.193c-.119-.381.318-.518.524-.817a1.712,1.712,0,0,0,.3-1.029h.206l.075.474h1.759a2.489,2.489,0,0,0-.749-1.285l.075-.125a2.9,2.9,0,0,1,1.129.362.626.626,0,0,1,.262.349.91.91,0,0,1-.293.7h1.672l.349-.387c.019-.037.119-.019.143,0l.736.574c.05.037.075.125.031.156ZM318.316,31.4h-1.092v.855h1.092Zm0,1.129h-1.092v1.023h1.092ZM321.5,36.2a.214.214,0,0,1-.225-.056,9.025,9.025,0,0,0-2.215-1.759l.069-.156a5.316,5.316,0,0,1,2.1.661,1.091,1.091,0,0,1,.518.936C321.71,36,321.66,36.135,321.5,36.2Zm-1.229-4.8h-1.2v.855h1.2Zm0,1.129h-1.2v1.023h1.2Z" transform="translate(-313.15 -27.127)" fill="#fff"/><path d="M338.532,32.823v1.865c0,.43.037.717.056,1.117,0,.106-.056.143-.162.193l-.593.187a.12.12,0,0,1-.156-.075v-.817h-4.941l-.349.43a.16.16,0,0,1-.175,0,4.22,4.22,0,0,1-.692-.555c-.075-.119.119-.162.175-.262a.308.308,0,0,0,.106-.225V33a7.806,7.806,0,0,0-.069-1.042,8.013,8.013,0,0,1,1.129.387.124.124,0,0,1,.056.156c-.106.106-.318.243-.318.381v2.1h2.121V31.345l-1.585-.012c-.056,0-.125.137-.331.418-.056.125-.262-.031-.561-.225s-.368-.231-.343-.343c.075-.143.275-.231.275-.4l-.012-1.809a6.51,6.51,0,0,0-.05-.7,9.91,9.91,0,0,1,1.129.43.151.151,0,0,1,.012.175c-.075.069-.256.137-.256.256v1.9h1.716v-3.1l-.05-.892a11.861,11.861,0,0,1,1.291.505.149.149,0,0,1,.05.156c-.118.137-.437.293-.437.387l-.012,2.945h1.815V29.155c0-.293-.012-.487-.037-.848.406.143.68.243,1.067.418.175.075-.031.212-.125.331-.1.087-.075.231-.075.349v.979c0,.3.05.767.056,1.061.019.087-.037.137-.231.225a3.566,3.566,0,0,1-.368.106c-.125.019-.281.019-.281-.056v-.381h-1.809v3.643h2.121a28.549,28.549,0,0,0-.069-2.926,8.257,8.257,0,0,1,1.167.318.1.1,0,0,1,0,.143C338.619,32.692,338.532,32.755,338.532,32.823Z" transform="translate(-320.053 -27.04)" fill="#fff"/><path d="M313.15,54.314a13.461,13.461,0,0,0,2.739-2.452c.075-.087.362.156.886.543a.113.113,0,0,1,0,.143c-.069.056-.281.012-.406.1a14.809,14.809,0,0,1-3.132,1.809Zm2.708-.643c.543.031.867.05,1.335.037a.194.194,0,0,0,.162-.187c.012-.73-.012-1.379,0-2.084a19.9,19.9,0,0,0-2.82.343c-.106-.069-.087-.212-.125-.331l-.1-.455c.012-.05.031-.106.087-.1a3.536,3.536,0,0,0,1.79-.561c.749-.387,1.441-.855,2.171-1.285a22.855,22.855,0,0,0-3.325.611.108.108,0,0,1-.125-.075l-.187-.561c-.031-.075.031-.137.106-.156a1.739,1.739,0,0,0,.786-.156,8.94,8.94,0,0,0,1.684-1.5l-2.2.056c-.43.012-.867-.019-1.291-.019l-.037-.193a26.886,26.886,0,0,0,3.132-.312l1.441-.275a13.891,13.891,0,0,0,2.034-.524c.119-.037.231.187.711,1.011.031.1-.119.162-.193.137l-.555-.125-2.452.193-.175.012c.212.137.43.25.63.387a.122.122,0,0,1,0,.143c-.1.087-.293.037-.418.087a8.528,8.528,0,0,1-2,1.061l.979-.019,1.479-.075.331-.037c.274-.206.574-.505.823-.717.125-.106.293.069.917.574a.126.126,0,0,1,.031.175l-.05.037-.437.031a26.216,26.216,0,0,1-3.987,2.059l-.293.069.674.012,1.553-.031,1.672-.056a3.874,3.874,0,0,0-.979-.711l.056-.156a5.743,5.743,0,0,1,2.015.761.76.76,0,0,1,.387.605,1.374,1.374,0,0,1-.118.555c-.075.087-.193.156-.293.075-.275-.274-.468-.561-.73-.824l-1.741.175-.019.056V53.4c0,.561,0,.867-.231,1.1a2.816,2.816,0,0,1-.942.43c-.106.019-.087-.611-.468-.836a1.974,1.974,0,0,0-.693-.231v-.187Zm2.758-1.653A5.558,5.558,0,0,1,321,53.1a.926.926,0,0,1,.144,1.023c-.05.075-.087.187-.187.206-.368.037-.437-.293-.649-.574a5.848,5.848,0,0,0-1.778-1.572Z" transform="translate(-313.15 -34.15)" fill="#fff"/><path d="M335.8,47.148l-.069.037h-2.14c-.168.561-.349,1.135-.562,1.684H334l.312-.418a.17.17,0,0,1,.206,0c.331.193.493.281.78.474.075.069.031.143-.037.206-.125.1-.281.187-.331.331a7.378,7.378,0,0,1-1.217,2.895,6.826,6.826,0,0,1-2.938,1.934l-.362.125-.106-.175a12.629,12.629,0,0,0,1.354-.867,5.073,5.073,0,0,0,2.071-2.764,9.775,9.775,0,0,0,.331-1.466H332.9c-.125.281-.3.543-.455.817.468.343.936.8.8,1.422a.707.707,0,0,1-.449.505.359.359,0,0,1-.3-.069c-.106-.119-.056-.293-.05-.437a2.063,2.063,0,0,0-.143-1.179c-.281.318-.537.717-.848,1.023a7.307,7.307,0,0,1-1,.867c-.069-.012-.106-.075-.143-.106a8.176,8.176,0,0,0,2.021-3.675,6.7,6.7,0,0,0,.225-1.129h-1.2a2.424,2.424,0,0,0-.68.087l-.262-.381h4.005c.137-.206.3-.406.449-.611a.148.148,0,0,1,.143-.019,7.629,7.629,0,0,1,.817.736A.147.147,0,0,1,335.8,47.148Zm2.77-.424-.019,2.071.012,4.392-.012.736c-.012.518-.761.855-1.217,1l-.143.019c-.05-.368-.162-.817-.586-.955a5.381,5.381,0,0,0-.824-.293l.037-.193a11.132,11.132,0,0,0,1.722.125.172.172,0,0,0,.156-.137v-.362l-.012-6.282L337.653,46a8.584,8.584,0,0,1,1.217.256C339.013,46.505,338.639,46.537,338.57,46.724Zm-1.9,1.5v1.079l.031,2.745c0,.1-.019.175-.069.206a1.9,1.9,0,0,1-.674.243c-.037,0-.087-.031-.087-.069,0-.437.031-.873.031-1.323l-.012-2.733-.037-.955a5.257,5.257,0,0,1,1.061.387c.056.037.031.106.012.143C336.848,48.065,336.673,48.09,336.673,48.227Z" transform="translate(-319.604 -34.171)" fill="#fff"/></g><path d="M38.588,34.386H31.077c-2.458,0-7.954-.087-10.637-.262a3.516,3.516,0,0,0,.749,1.585c2.24-.218,6.282-.437,9.888-.437H41.62a2.6,2.6,0,0,0,1.541-.7A12.687,12.687,0,0,0,40.3,32.24,13.54,13.54,0,0,0,38.588,34.386Z" transform="translate(-10.683 -14.167)" fill="#fff"/><path d="M30.954,19.847c0-.574-.437-.88-1.142-1.185A14.049,14.049,0,0,0,25.457,18l-.087.175a18.716,18.716,0,0,1,4.529,2.77A1.027,1.027,0,0,0,30.954,19.847Z" transform="translate(-12.537 -8.81)" fill="#fff"/><path d="M13.33,24.391c0,.48.306.836.792.749a4.134,4.134,0,0,0,2.065-.923c.306-.262.349-.53.349-1.142-.037-4.6-.012-11.623-.006-14.018h18.5a14.477,14.477,0,0,1-2.021.661c-3.562,1.011-11.03,1.716-14.854,2.021l.175.7c2.689.025,6.039-.181,9.252-.474.012.218.019.449.019.649,0,.561-.006,1.722-.037,3.119-2.608-.006-7.7-.094-10.25-.262a3.516,3.516,0,0,0,.749,1.585c1.641-.162,4.255-.324,6.95-.4a29.246,29.246,0,0,1-7.873,4.879l.262.574a32.557,32.557,0,0,0,10.125-4.773c-.044,1.61-.119,3.325-.237,4.729-.044.53.175.749.53.749a5.035,5.035,0,0,0,1.978-.574c.262-.175.349-.393.306-.923-.056-1.036-.094-2.5-.119-3.918a37.107,37.107,0,0,1,8.029,3.918,1.9,1.9,0,0,0-.087-2.6c-1.672-1.329-5.016-1.653-7.954-1.915v-.193h9.271a2.6,2.6,0,0,0,1.541-.7,9.487,9.487,0,0,0-2.552-1.934,8.974,8.974,0,0,0-1.41,1.759H32.034a16.781,16.781,0,0,0,3.394-1.89,2.461,2.461,0,0,0,1.672-.574,8.833,8.833,0,0,0-3.25-1.672,4.31,4.31,0,0,1-.749,1.5,20.2,20.2,0,0,1-2.626,2.639h-.505c-.012-1.3-.006-2.377.012-2.814.262-.175.574-.349.749-.48.306-.218.306-.437,0-.574-.143-.062-.3-.119-.462-.175,1.635-.181,3.163-.381,4.461-.574a15.057,15.057,0,0,0,3.425.087,4.494,4.494,0,0,0-1.747-2.152h5.085V23.38c0,.749.218,1.054.749,1.011a3.562,3.562,0,0,0,1.934-.7c.48-.349.53-.53.48-1.4-.175-4.3-.349-10.281-.306-12a6.16,6.16,0,0,0,1.585-1.273,18.691,18.691,0,0,0-3.294-2.726A11.45,11.45,0,0,0,40.618,8.22H23.986a24.023,24.023,0,0,0,4.766-2.152,5.128,5.128,0,0,0,2.857-.749A15.265,15.265,0,0,0,26.731,3.56,6.769,6.769,0,0,1,25.5,5.188,23.159,23.159,0,0,1,20.929,8.22H16.537a21.934,21.934,0,0,0-3.076-1.142s.218,1.847.262,3.25c.044,1.716-.044,7.031-.218,10.593C13.461,22.058,13.374,23.337,13.33,24.391Z" transform="translate(-8.008 -3.379)" fill="#fff"/><path d="M43.212,35.47A12.792,12.792,0,0,0,41.2,37.978H15.437c-2.458,0-7.954-.087-10.637-.262a4.685,4.685,0,0,0,.749,1.89c2.24-.218,6.282-.437,9.888-.437h1.048a25.868,25.868,0,0,1-4.429,4c-.349.262-.393.53-.131.967a5.309,5.309,0,0,0,2.065,2.021c.848-1.029,1.747-2.109,2.645-3.207H34.228a20.414,20.414,0,0,1-1.822,3.338,3.336,3.336,0,0,1-3.119.967,84.193,84.193,0,0,1-8.572-1.8l-.306.836c3.207.749,6.987,2.639,8.441,5.184,2.327-.044,5.053-.836,6.413-2.814a27.207,27.207,0,0,0,2.508-4.573,8.345,8.345,0,0,0,2.109-1.4,12.733,12.733,0,0,0-3.693-3.032,11,11,0,0,0-2.065,2.2H17.527c.73-.9,1.447-1.8,2.146-2.683H44.84a3.356,3.356,0,0,0,1.847-.836A13.939,13.939,0,0,0,43.212,35.47Z" transform="translate(-4.8 -15.381)" fill="#fff"/><path d="M86.833,11.2l18.373.044a13.02,13.02,0,0,1-2.065,2.639l.53.53a16.815,16.815,0,0,0,4.13-2.683,8.163,8.163,0,0,0,1.934-.661,12.164,12.164,0,0,0-2.945-2.857,18.721,18.721,0,0,0-1.759,1.89H95.848V8.7h7.337a2.6,2.6,0,0,0,1.541-.7,12.687,12.687,0,0,0-2.857-2.327,13.589,13.589,0,0,0-1.6,1.978H95.848V6.9a4.547,4.547,0,0,0,2.24-1.759A17.194,17.194,0,0,0,92.5,3.91a17.138,17.138,0,0,1,.53,3.737v2.458H87.319a20.155,20.155,0,0,0-3.693-1.316,61.646,61.646,0,0,1,.262,13.975c-.349,4.791-1.716,10.986-3.868,15.116l1.235.661c2.639-4.392,4.086-9.1,4.966-15.247A95.422,95.422,0,0,0,86.833,11.2Z" transform="translate(-33.093 -3.511)" fill="#fff"/><path d="M128.883,31.834c-.044.661.349,1.011.792.923a3.757,3.757,0,0,0,1.716-.749c.393-.393.393-.661.393-1.447-.131-6.638-.218-13.27-.175-16.127a8.625,8.625,0,0,0,1.934-1.585v-.262a13.63,13.63,0,0,0-5.053-1.5,19.613,19.613,0,0,1,.574,4.217C129.1,18.346,129.1,25.595,128.883,31.834Z" transform="translate(-51.324 -6.211)" fill="#fff"/><path d="M134.417,4.47a22.791,22.791,0,0,1,.574,4.217c.306,7.561.044,16.171.044,24.081,0,1.8-.749,2.065-1.628,1.934a59.158,59.158,0,0,1-6.02-1.36l-.306.836c2.639.967,5.1,2.414,5.889,5.4,2.327,0,5.184-1.185,5.141-4.217-.131-10.019-.218-19.29-.087-27.556a8.625,8.625,0,0,0,1.934-1.585V5.967A16.053,16.053,0,0,0,134.417,4.47Z" transform="translate(-50.793 -3.721)" fill="#fff"/><path d="M91.58,21.3a3.966,3.966,0,0,0,1.142,1.5c1.1-.424,2.29-.848,3.494-1.229.168,1.56,1.179,2.308,3.138,2.545a33.511,33.511,0,0,0,8.616-.044,4.775,4.775,0,0,0,3.163-1.447,9.735,9.735,0,0,1-1.316-3.955h-.574a7.1,7.1,0,0,1-.88,2.639,1.331,1.331,0,0,1-1.011.749,24.6,24.6,0,0,1-7.823.087c-.661-.087-.88-.437-.88-1.185V20.88c.25-.062.5-.125.749-.181l2.945-.7h0l.8-.193.468-.112h0l1.628-.393a2.79,2.79,0,0,0,1.316-1.054,11.525,11.525,0,0,0-3.207-1.447,12.546,12.546,0,0,0-1.129,2.3l-3.051.692c-.175.037-.349.075-.518.119.006-.505.031-1.023.081-1.479a2.879,2.879,0,0,0,1.541-1.229,18.618,18.618,0,0,0-4.261-.923,14.519,14.519,0,0,1,.175,2.021v2.165C94.706,20.756,93.165,21.068,91.58,21.3Z" transform="translate(-37.441 -8.16)" fill="#fff"/><path d="M108.983,35.1a9.56,9.56,0,0,0,2.371-.574l.087-.175A12.662,12.662,0,0,0,107.7,31.8a5.824,5.824,0,0,1-.7,1.716,12.931,12.931,0,0,1-3.631,2.683,8.455,8.455,0,0,0-3.144-2.826c.075-.037.15-.081.225-.119a6.372,6.372,0,0,0,1.8-.218,11.445,11.445,0,0,0-1.516-1.585h8.9a2.6,2.6,0,0,0,1.541-.7,12.687,12.687,0,0,0-2.857-2.327,13.44,13.44,0,0,0-1.572,1.934h-5.9c-2.458,0-7.954-.087-10.637-.262a4.319,4.319,0,0,0,.749,1.8c1.878-.187,5.022-.368,8.11-.424a30.585,30.585,0,0,1-9.564,4.816l.349,1.011a40.565,40.565,0,0,0,9.252-3.344c.206.137.393.268.574.406-2.851,2.626-7.636,4.816-11.1,5.839l.48.967a31.99,31.99,0,0,0,12.066-5.259,4.41,4.41,0,0,1,.368.817A37.023,37.023,0,0,1,87.26,44.591l.618,1.142a46.4,46.4,0,0,0,13.912-6.126,9.327,9.327,0,0,1-1.429,4.592,1.388,1.388,0,0,1-1.447.48c-1.185-.218-2.77-.53-3.912-.792l-.262.661a6.377,6.377,0,0,1,3.912,3.737c3.731-.605,5.577-3.438,5.621-8.753a15.99,15.99,0,0,1,4.966,5.9,2.3,2.3,0,0,0,2.2-2.24c0-2.389-4.323-4.286-7.256-4.891a5.588,5.588,0,0,0-.268-.986A26.378,26.378,0,0,0,108.983,35.1Z" transform="translate(-35.816 -12.73)" fill="#fff"/><g transform="translate(95.826 0.505)"><path d="M182.068,39.327l-5.8-2.19.268-.287a20.463,20.463,0,0,0,3.706-5.465l-3.132,3.65-.187-.337c-.655-1.229-1.909-3.388-2.776-4.679v9.171h-5.609V30.181a30.649,30.649,0,0,1-4.754,7.162l-.15.156-4.823-2.957.243-.237a30.7,30.7,0,0,0,6.289-8.335h-4.429V21.478h7.624V20.455h-8.229V15.963h5.97c-.1-.218-.2-.449-.306-.686-.462-1.036-.979-2.208-1.472-3.175h-3.288V7.915h7.773c-.094-1.061-.25-2.446-.406-3.263l-.062-.312h.318a45.25,45.25,0,0,1,7.025.48l.212.044v.218c0,.4-.63,1.042-.636,1.048a5.306,5.306,0,0,1-1.086.824v.967h6.544v4.186h-2.464c-.636,1.31-1.366,2.714-2,3.868h4.941v4.492h-7.237V21.49h6.376v4.473h-4.261a37.872,37.872,0,0,1,4.211,4.835l.012.012a18.685,18.685,0,0,0,.668-1.884,37.54,37.54,0,0,0,1.21-10.818c0-2.9-.025-6.395-.212-10.281l-.012-.275h.275c1.11,0,2.464-.037,4.38-.131a37.726,37.726,0,0,0,10.469-2.009l.193-.075,3.138,4.635-.387.081a109.426,109.426,0,0,1-12.415,1.61l-.069.006c.05,1.591.062,2.938.044,4.105h12.7v4.791h-4.261V38.958h-5.44V20.579H187.7a44.084,44.084,0,0,1-1.329,9.732,24.726,24.726,0,0,1-4.186,8.859Zm-4.885-2.408,4.71,1.778a24.225,24.225,0,0,0,3.974-8.516,44.3,44.3,0,0,0,1.323-9.87l.006-.256h4.093V38.447h4.38V20.055h4.261V16.318H187.215l.006-.268c.031-1.279.019-2.782-.044-4.592l-.006-.25.568-.05a113.912,113.912,0,0,0,11.972-1.522L197.247,6a38.817,38.817,0,0,1-10.437,1.971c-1.772.081-3.063.125-4.13.131.181,3.787.2,7.187.2,10.032A37.889,37.889,0,0,1,181.644,29.1,19.894,19.894,0,0,1,177.183,36.918Zm-8.117,1.741h4.554V28.415l.474.611a51.757,51.757,0,0,1,3.113,5.078l2.714-3.169a37.565,37.565,0,0,0-4.5-5.047l-.48-.455h5.047V22h-6.376V19.918h7.237V16.48h-5.315l.218-.393c.7-1.248,1.553-2.882,2.277-4.38l.075-.15h2.271V8.426h-6.544V6.648l.131-.075a4.983,4.983,0,0,0,1.11-.824,3.425,3.425,0,0,0,.381-.474,47.182,47.182,0,0,0-6.295-.412c.156.93.3,2.308.381,3.288l.025.287h-7.817v3.132h3.082l.075.143c.518,1.011,1.073,2.252,1.56,3.35.168.374.324.724.474,1.061l.168.374H160.85v3.438h8.229v2.077h-7.624v3.438h4.692l-.15.362a29.976,29.976,0,0,1-6.32,8.641l3.874,2.377a27.2,27.2,0,0,0,5.01-8.141l.518-1.61V38.659Zm3.275-22.166H170.5l-.056-.187c-.406-1.3-.811-2.645-1.167-3.831l-.268-.9h4.729l-.069.318a28.567,28.567,0,0,1-1.26,4.436Zm-1.454-.53h1.092a28.377,28.377,0,0,0,1.1-3.868h-3.369l.069.225C170.121,13.455,170.5,14.727,170.888,15.963Z" transform="translate(-158.554 -4.178)" fill="#fff"/><path d="M181.97,39.416l-.112-.044-6.02-2.271.424-.455a21.049,21.049,0,0,0,3.119-4.3l-2.464,2.876-.287-.543c-.593-1.11-1.647-2.938-2.483-4.23v8.8h-5.921V30.782a31.514,31.514,0,0,1-4.486,6.563l-.237.25-5.1-3.132.387-.374a31.035,31.035,0,0,0,6.151-8.067H160.6v-4.8h7.624v-.711h-8.229V15.7h5.889l-.206-.468c-.443-1-.948-2.134-1.422-3.082H160.9v-4.5h7.761c-.087-.961-.231-2.277-.387-3.076l-.094-.5h.505a45.726,45.726,0,0,1,7.056.48l.343.062v.349c0,.437-.568,1.042-.68,1.154a5.3,5.3,0,0,1-1.042.8v.724h6.544v4.5h-2.527c-.586,1.2-1.242,2.477-1.834,3.556h4.835v4.8h-7.237v.711h6.376v4.8h-4.036a37.947,37.947,0,0,1,3.806,4.38c.206-.518.393-1.061.555-1.61a37.443,37.443,0,0,0,1.2-10.768c0-2.9-.025-6.395-.212-10.275l-.019-.443h.443c1.1,0,2.458-.037,4.373-.131a37.871,37.871,0,0,0,10.425-2l.312-.119,3.338,4.929-.618.125a109.765,109.765,0,0,1-12.359,1.61c.044,1.46.056,2.708.037,3.806h12.7v5.1h-4.261V39.029h-5.746V20.637h-2.751a43.867,43.867,0,0,1-1.329,9.614,24.83,24.83,0,0,1-4.211,8.915Zm-5.584-2.439,5.478,2.065.05-.062a24.626,24.626,0,0,0,4.161-8.8,43.749,43.749,0,0,0,1.323-9.695l.006-.15h3.363V38.717h5.122V20.326h4.261V15.846h-12.7v-.162c.025-1.167.012-2.508-.044-4.1l-.006-.15.218-.019a110.186,110.186,0,0,0,12.4-1.61l.156-.031L197.23,5.44l-.081.031A38.088,38.088,0,0,1,186.63,7.486c-1.922.087-3.275.131-4.386.131h-.112l.006.112c.187,3.887.212,7.38.212,10.288a37.648,37.648,0,0,1-1.217,10.862c-.156.524-.337,1.042-.53,1.541l.062-.075-.455,1a20.741,20.741,0,0,1-3.731,5.5Zm-7.848,1.959h5.3V29.409l.287.424c.867,1.291,2.121,3.444,2.782,4.691l.075.137,3.263-3.806-.037-.05a37.931,37.931,0,0,0-4.2-4.835l-.275-.268h4.486v-4.18h-6.376V20.188h7.237v-4.18h-5.047l.131-.231c.636-1.148,1.36-2.552,2-3.862l.044-.087H180.6V7.954h-6.544v-1.2l.075-.044a5.1,5.1,0,0,0,1.054-.8,2.1,2.1,0,0,0,.593-.936V4.885l-.087-.019a44.964,44.964,0,0,0-7-.474h-.131l.025.131c.162.861.318,2.3.406,3.275l.012.168H161.22v3.874h3.232l.044.087c.493.973,1.017,2.146,1.472,3.182l.405.911h-6.058V20.2h8.229v1.335H160.92v4.18h4.517l-.1.218a30.732,30.732,0,0,1-6.32,8.379l-.1.094,4.542,2.789.062-.062a30.339,30.339,0,0,0,4.729-7.118l.3-.674v9.6Zm13.251-.15-5.028-1.9.15-.168a19.866,19.866,0,0,0,4.442-7.773,37.781,37.781,0,0,0,1.229-10.924c0-2.832-.025-6.232-.2-10.026l-.006-.162h.162c1.067-.006,2.333-.044,4.124-.131a39.174,39.174,0,0,0,10.394-1.959l.112-.044,2.664,3.93-.231.044A112.783,112.783,0,0,1,187.616,11.2l-.424.037.006.1c.062,1.815.075,3.319.044,4.6v.112H199.95v4.049h-4.261V38.5H191V20.113H187.21v.106a43.8,43.8,0,0,1-1.329,9.9,24.541,24.541,0,0,1-4,8.572ZM177.3,36.758l4.386,1.653a24.334,24.334,0,0,0,3.88-8.366,43.606,43.606,0,0,0,1.316-9.832l.012-.406h4.4V38.2h4.068V19.8h4.261V16.376H186.911l.012-.43c.031-1.273.019-2.776-.044-4.585l-.012-.4.717-.062A113.8,113.8,0,0,0,199.307,9.42l-2.258-3.338A39.283,39.283,0,0,1,186.68,8.017c-1.7.081-2.938.119-3.974.125.175,3.731.193,7.081.193,9.876a37.969,37.969,0,0,1-1.242,11.011A20.264,20.264,0,0,1,177.3,36.758Zm-3.675,1.959h-4.866V27.968l-.212.661a27.253,27.253,0,0,1-5.041,8.2l-.087.094-4.155-2.552.143-.137a29.809,29.809,0,0,0,6.289-8.584l.062-.15h-4.617V21.748h7.617V19.982h-8.229V16.233H166.7l-.069-.15c-.15-.331-.306-.686-.474-1.061-.493-1.1-1.042-2.34-1.553-3.338l-.031-.056h-3.144V8.185h7.8l-.006-.119c-.075-.955-.225-2.34-.381-3.275l-.031-.181h.187a47.243,47.243,0,0,1,6.32.412l.237.037-.131.2a3.589,3.589,0,0,1-.4.5,5.194,5.194,0,0,1-1.142.842l-.05.031V8.179h6.544v3.444h-2.327l-.031.062c-.724,1.5-1.578,3.138-2.277,4.386l-.087.162h5.2v3.749h-7.237v1.766H180V25.5h-4.816l.193.187a38.339,38.339,0,0,1,4.517,5.072l.075.1-2.945,3.431-.106-.2a52.877,52.877,0,0,0-3.1-5.06l-.193-.25v9.938Zm-4.554-.312h4.242V27.862l.755.979a52.664,52.664,0,0,1,3.02,4.9l2.489-2.9a38.194,38.194,0,0,0-4.4-4.929l-.761-.724h5.284V22.06H173.31V19.67h7.237V16.545h-5.421l.349-.624c.7-1.248,1.547-2.876,2.271-4.367l.112-.237h2.215V8.5h-6.544V6.457l.206-.125a4.748,4.748,0,0,0,1.079-.8,2.211,2.211,0,0,0,.212-.25,47.879,47.879,0,0,0-5.839-.368c.143.936.281,2.221.349,3.119l.037.455h-7.83v2.82h3.026l.119.225c.518,1.011,1.067,2.246,1.553,3.338.175.387.331.742.48,1.073l.268.593h-6.345v3.126h8.229v2.389h-7.624v3.126h4.773l-.237.58a29.888,29.888,0,0,1-6.214,8.553l3.6,2.208a26.717,26.717,0,0,0,4.885-7.986l.817-2.564V38.405Zm3.225-21.854h-2.059l-.094-.293c-.393-1.26-.792-2.57-1.135-3.731l-.362-1.21h5.128l-.106.505a28.874,28.874,0,0,1-1.266,4.461Zm-1.828-.312h1.616l.025-.069a28.566,28.566,0,0,0,1.254-4.411l.025-.131h-4.323l.243.8c.349,1.154.742,2.471,1.135,3.724Zm1.466-.218h-1.31l-.031-.112c-.387-1.235-.767-2.514-1.11-3.643l-.131-.424h3.774l-.044.187a27.026,27.026,0,0,1-1.11,3.887Zm-1.079-.312h.867a26.469,26.469,0,0,0,1.017-3.556h-2.963l.006.025C170.1,13.276,170.478,14.511,170.852,15.709Z" transform="translate(-158.4 -4.08)" fill="#fff"/></g><g transform="translate(144.188)"><path d="M240.332,39.288l-3.862-5.24.443-.056a15.229,15.229,0,0,0,7.393-3.169,9.023,9.023,0,0,0,3.406-4.922h-2.583V24.184a31.6,31.6,0,0,1-4.648,2l-.181.062-3.93-5.166.387-.1a47.356,47.356,0,0,0,7.231-2.315,27.02,27.02,0,0,0,5.478-3.113h-11.7V11.064h16.713V9.879c-2.851.075-9.2.075-12.059-.006l-.168-.006-1.815-4.373.412.012c3.512.131,9.009.212,15.266-.131a96.457,96.457,0,0,0,14.861-1.8l.143-.031.1.1a22.544,22.544,0,0,1,3.013,4.273l.193.331-.374.062c-3.862.643-10.157,1.179-13.257,1.329v1.422h16.969v4.492H265.336a38.365,38.365,0,0,0,5.3,2.489,40.671,40.671,0,0,0,7.929,2.24l.424.069-3.818,5.2-.181-.062a43.32,43.32,0,0,1-8.3-3.824,65.341,65.341,0,0,1-5.908-4.08V21.1h-6.3V17.565a37.676,37.676,0,0,1-4.816,4h14.892l1.984,1.291-1.51,3.013H275.53l-.025.287c-.281,3.531-.543,6.863-2.364,9.239-2.009,2.614-5.652,3.712-11.479,3.45l-.162-.006-2.545-5.615.468.056a43.385,43.385,0,0,0,6.588.387,2.547,2.547,0,0,0,2.071-1.123l.006-.006a7.579,7.579,0,0,0,.886-2.3h-5.864l-.4,1.117-5.727-1.1,2.121-4.367H253.5a17.071,17.071,0,0,1-4.03,8.123,18.069,18.069,0,0,1-8.953,5.222Zm-2.913-4.841,3.119,4.242a17.448,17.448,0,0,0,8.522-5.016,16.584,16.584,0,0,0,3.949-8.085l.044-.212h6.881l-2.19,4.5,4.61.886.374-1.042H269.6l-.056.312a8.172,8.172,0,0,1-1.029,2.807,3.056,3.056,0,0,1-2.489,1.373h-.012a43.074,43.074,0,0,1-6.2-.331l2.021,4.467c5.54.225,9-.811,10.874-3.25,1.678-2.19,1.971-5.328,2.233-8.672h-10.78l1.678-3.356-1.46-.948H247.893l.749-.487a36.989,36.989,0,0,0,5.9-4.872l.455-.474V20.6h5.247V16.548l.424.318a67.81,67.81,0,0,0,6.289,4.367,42.105,42.105,0,0,0,8.017,3.712l3.076-4.192a42.505,42.505,0,0,1-13.806-5.222l-.742-.487h13.719V11.607H260.245V9.155l.25-.012c2.895-.125,9.09-.636,13.07-1.273a21.323,21.323,0,0,0-2.639-3.731,98.056,98.056,0,0,1-14.8,1.784c-6.039.331-11.373.268-14.9.143L242.6,9.361c3.026.081,9.5.081,12.134-.006L255,9.348v2.258H238.292v3.438h12.746l-.618.474a28.36,28.36,0,0,1-6.226,3.65,46.437,46.437,0,0,1-6.919,2.24l3.219,4.224a31.3,31.3,0,0,0,4.773-2.115l.393-.218v2.077h2.664l-.037.3a9.22,9.22,0,0,1-3.643,5.559A15.805,15.805,0,0,1,237.418,34.446Z" transform="translate(-236.089 -3.372)" fill="#fff"/><path d="M240.1,39.367l-4.08-5.54.7-.094A14.965,14.965,0,0,0,244.03,30.6a9.107,9.107,0,0,0,3.306-4.642h-2.545V24.338a31.262,31.262,0,0,1-4.442,1.89l-.287.1-4.142-5.44.618-.156a47.075,47.075,0,0,0,7.206-2.3,27.177,27.177,0,0,0,5.053-2.814H237.423v-4.8h16.713V9.939c-2.963.075-9.109.069-11.91-.012l-.275-.006-1.946-4.691.655.025c3.506.131,9,.212,15.247-.131a96.193,96.193,0,0,0,14.836-1.8l.225-.05.162.162a22.8,22.8,0,0,1,3.038,4.3l.306.524-.6.1c-3.787.63-9.988,1.167-13.132,1.323V10.8h16.969v4.8H265.728a40.648,40.648,0,0,0,4.773,2.19,40.9,40.9,0,0,0,7.9,2.233l.674.112-4.024,5.484h.462l-.037.455c-.281,3.556-.543,6.912-2.4,9.321-2.04,2.658-5.74,3.774-11.61,3.512l-.256-.012-2.7-5.958.742.094a43.191,43.191,0,0,0,6.569.387,2.41,2.41,0,0,0,1.94-1.048,7.29,7.29,0,0,0,.83-2.071h-5.559l-.412,1.135-.131-.025-5.927-1.135,2.1-4.323h-5.234a17.172,17.172,0,0,1-4.043,8.073,18.2,18.2,0,0,1-9.027,5.265Zm-3.512-5.3,3.637,4.941.069-.019a17.956,17.956,0,0,0,8.878-5.172,16.93,16.93,0,0,0,3.993-8.048l.025-.125h5.983l-2.14,4.4,5.4,1.036.393-1.092h6.17l-.044.187a7.752,7.752,0,0,1-.911,2.358,2.681,2.681,0,0,1-2.2,1.2,42.983,42.983,0,0,1-6.619-.387l-.193-.025,2.389,5.272h.069c5.771.262,9.37-.817,11.348-3.388,1.8-2.34,2.053-5.646,2.333-9.152l.012-.119H264.605l1.56-3.119-1.828-1.192H249l.406-.287a38.548,38.548,0,0,0,4.8-3.987l.268-.262v3.756h5.989V17.164l.25.187a66.682,66.682,0,0,0,5.9,4.068,43.177,43.177,0,0,0,8.266,3.812l.075.025,3.593-4.9-.175-.031a40.843,40.843,0,0,1-7.961-2.252,38.653,38.653,0,0,1-5.328-2.5l-.5-.293H277.42V11.1H260.45V9.4l.15-.006c3.088-.143,9.4-.686,13.245-1.323L274,8.049l-.081-.137a22.284,22.284,0,0,0-2.988-4.242l-.044-.044-.056.012a97.524,97.524,0,0,1-14.886,1.809c-6.264.343-11.766.262-15.279.131l-.168-.006,1.684,4.055h.069c2.851.081,9.158.087,12.053.006l.162-.006v1.5H237.754v4.18h12.028l-.387.281a27.945,27.945,0,0,1-5.509,3.132,47.6,47.6,0,0,1-7.249,2.321l-.156.037,3.718,4.885.075-.025a32.231,32.231,0,0,0,4.623-1.99l.231-.125v1.822h2.614l-.037.187a9.183,9.183,0,0,1-3.456,5.01,15.305,15.305,0,0,1-7.468,3.2Zm28.523-8.435h9.907l-.256-.087a43.262,43.262,0,0,1-8.329-3.837,65.444,65.444,0,0,1-5.677-3.9v3.369h-6.613V17.85a39.287,39.287,0,0,1-4.167,3.475h14.449l2.14,1.391Zm-24.8,13.132-3.338-4.529.25-.044a15.594,15.594,0,0,0,7.143-3.182,9.069,9.069,0,0,0,3.587-5.459l.019-.119h-2.645V23.458l-.162.087a31.029,31.029,0,0,1-4.8,2.127l-.106.037-3.431-4.5.231-.056a45.843,45.843,0,0,0,6.894-2.233,28.219,28.219,0,0,0,6.2-3.631l.256-.193h-12.44V11.343H254.68V9.4l-.112.006c-2.633.081-9.1.087-12.14.006h-.1l-1.5-3.612.243.006c3.431.119,8.8.193,14.885-.143a98.668,98.668,0,0,0,14.779-1.778l.087-.019.062.062a22.156,22.156,0,0,1,2.658,3.762l.119.2-.225.037c-4.03.636-10.188,1.148-13.089,1.273l-.106.006v2.146h16.969V15.1H263.857l.306.2a42.737,42.737,0,0,0,13.75,5.2l.25.044-3.294,4.486-.106-.037a42.183,42.183,0,0,1-8.042-3.731,69.286,69.286,0,0,1-6.3-4.373l-.175-.131v3.9h-5.559v-4.08l-.187.193a36.962,36.962,0,0,1-5.927,4.891l-.306.2h16.008l1.616,1.048-1.628,3.257h10.693l-.012.168c-.25,3.182-.512,6.47-2.265,8.759-1.909,2.489-5.409,3.544-11.005,3.313l-.094-.006L259.4,33.6l.275.031a42.683,42.683,0,0,0,6.182.331,2.913,2.913,0,0,0,2.371-1.3,8.059,8.059,0,0,0,1-2.757l.025-.125h-6.588l-.381,1.061-4.941-.948,2.165-4.467h-6.507l-.019.087A16.753,16.753,0,0,1,249,33.671a17.682,17.682,0,0,1-8.6,5.066Zm-2.782-4.3,2.907,3.949a17.286,17.286,0,0,0,8.347-4.941,16.416,16.416,0,0,0,3.912-8.01l.069-.337h7.262l-2.208,4.548,4.28.817.368-1.017h7.174l-.087.493a8.537,8.537,0,0,1-1.054,2.87,3.205,3.205,0,0,1-2.608,1.441,42.716,42.716,0,0,1-5.964-.3l1.872,4.124c5.428.206,8.815-.811,10.649-3.194,1.666-2.171,1.946-5.34,2.19-8.422H263.776l1.728-3.456-1.3-.848H247.224l1.192-.774a36.963,36.963,0,0,0,5.871-4.847l.724-.755v4.548h4.935V16.134l.674.505a69.112,69.112,0,0,0,6.27,4.355,41.8,41.8,0,0,0,7.879,3.662l2.864-3.9a43.109,43.109,0,0,1-13.619-5.2l-1.185-.774h14.087V11.661H259.945V8.9l.4-.019c2.839-.119,8.8-.611,12.827-1.235a21.123,21.123,0,0,0-2.439-3.444A98.6,98.6,0,0,1,255.99,5.978c-5.958.324-11.23.268-14.673.15L242.558,9.1c3.076.075,9.42.075,12.022-.006l.43-.012v2.577H238.278v3.126H251.33l-.986.755a28.3,28.3,0,0,1-6.257,3.668,45.919,45.919,0,0,1-6.713,2.19l3.007,3.949a31.117,31.117,0,0,0,4.642-2.065l.624-.343v2.19h2.683l-.062.474a9.38,9.38,0,0,1-3.7,5.665A16.19,16.19,0,0,1,237.53,34.457Z" transform="translate(-235.92 -3.27)" fill="#fff"/></g><g transform="translate(0.212 41.5)"><g transform="translate(0)"><path d="M8.952,69.79a3.416,3.416,0,0,1,3.425,2.034l-1.142.574A2.274,2.274,0,0,0,8.958,70.95a2.187,2.187,0,1,0,0,4.336,2.282,2.282,0,0,0,2.277-1.447l1.142.574a3.416,3.416,0,0,1-3.425,2.034c-2.184,0-3.812-1.41-3.812-3.325S6.768,69.79,8.952,69.79Z" transform="translate(-5.14 -69.79)" fill="#fff"/><path d="M17.6,76.026c0-.873.749-1.36,1.878-1.479l1.971-.206V74.3c0-.393-.349-.717-1.179-.717a1.487,1.487,0,0,0-1.422.717l-1.092-.368a2.6,2.6,0,0,1,2.558-1.366c1.485,0,2.346.605,2.346,1.753v1.859c0,.262.119.381.655.262v.942c-1.036.206-1.547-.125-1.747-.586a2.917,2.917,0,0,1-1.99.686C18.455,77.492,17.6,76.981,17.6,76.026Zm3.849-.786-1.778.2c-.555.062-.848.2-.848.549s.349.537.936.537c.774,0,1.691-.331,1.691-.961Z" transform="translate(-9.827 -70.836)" fill="#fff"/><path d="M28.046,72.664h1.26v.593a2.268,2.268,0,0,1,1.728-.686,1.984,1.984,0,0,1,2.059,2.184v2.633h-1.26v-2.34c0-.811-.406-1.348-1.217-1.348A1.228,1.228,0,0,0,29.3,75.065v2.321H28.04V72.664Z" transform="translate(-13.753 -70.836)" fill="#fff"/><path d="M38.285,72.952H37.15V71.9h1.135V70.55h1.241V71.9h2.015v1.054H39.527v1.89c0,.555.306.749.961.749a3.028,3.028,0,0,0,1.036-.2l.218,1.036a4.627,4.627,0,0,1-1.528.268c-1.042,0-1.928-.43-1.928-1.647Z" transform="translate(-17.18 -70.076)" fill="#fff"/><path d="M50.871,75.028A2.779,2.779,0,1,1,48.12,72.57,2.533,2.533,0,0,1,50.871,75.028Zm-1.217,0a1.55,1.55,0,1,0-1.541,1.41A1.407,1.407,0,0,0,49.655,75.028Z" transform="translate(-20.264 -70.836)" fill="#fff"/><path d="M55.756,72.664h1.26v.593a2.268,2.268,0,0,1,1.728-.686A1.984,1.984,0,0,1,60.8,74.754v2.633h-1.26v-2.34c0-.811-.406-1.348-1.217-1.348a1.228,1.228,0,0,0-1.316,1.366v2.321H55.75V72.664Z" transform="translate(-24.176 -70.836)" fill="#fff"/><path d="M69.589,75.6l1.073.462a2.653,2.653,0,0,1-2.527,1.429,2.531,2.531,0,0,1-2.795-2.464,2.557,2.557,0,0,1,2.789-2.458,2.4,2.4,0,0,1,2.62,2.408v.393H66.557a1.49,1.49,0,0,0,1.585,1.092A1.475,1.475,0,0,0,69.589,75.6Zm-2.995-1.079H69.5a1.365,1.365,0,0,0-1.422-.942A1.458,1.458,0,0,0,66.594,74.523Z" transform="translate(-27.783 -70.836)" fill="#fff"/><path d="M75.487,75.681a2.692,2.692,0,0,0,2.059.836c.692,0,1.154-.156,1.154-.505s-.43-.362-1.522-.493c-1.185-.156-2.134-.362-2.134-1.366,0-.936.9-1.572,2.34-1.572a3.261,3.261,0,0,1,2.446.892l-.717.767a2.375,2.375,0,0,0-1.791-.686c-.7,0-1.042.187-1.042.468,0,.3.331.331,1.36.462,1.242.143,2.315.324,2.315,1.41S78.85,77.5,77.5,77.5a3.644,3.644,0,0,1-2.726-.992Z" transform="translate(-31.33 -70.839)" fill="#fff"/><path d="M88.359,75.6l1.073.462A2.653,2.653,0,0,1,86.9,77.492a2.531,2.531,0,0,1-2.795-2.464A2.557,2.557,0,0,1,86.9,72.57a2.4,2.4,0,0,1,2.62,2.408v.393H85.327a1.673,1.673,0,0,0,3.032.231Zm-3-1.079h2.907a1.365,1.365,0,0,0-1.422-.942A1.458,1.458,0,0,0,85.358,74.523Z" transform="translate(-34.843 -70.836)" fill="#fff"/><path d="M105.784,73.115c0,1.915-1.61,3.325-3.812,3.325s-3.812-1.41-3.812-3.325,1.6-3.325,3.812-3.325S105.784,71.2,105.784,73.115Zm-6.27,0a2.478,2.478,0,1,0,2.458-2.165A2.212,2.212,0,0,0,99.514,73.115Z" transform="translate(-40.128 -69.79)" fill="#fff"/><path d="M113.19,79h-1.26V72.664h1.26v.574a2.369,2.369,0,0,1,1.772-.668,2.463,2.463,0,1,1,0,4.922,2.369,2.369,0,0,1-1.772-.668Zm-.056-3.93a1.487,1.487,0,0,0,1.6,1.4,1.443,1.443,0,1,0,0-2.87,1.483,1.483,0,0,0-1.6,1.4Z" transform="translate(-45.307 -70.836)" fill="#fff"/><path d="M126.359,75.6l1.073.462a2.653,2.653,0,0,1-2.527,1.429,2.531,2.531,0,0,1-2.795-2.464A2.557,2.557,0,0,1,124.9,72.57a2.4,2.4,0,0,1,2.62,2.408v.393h-4.192a1.673,1.673,0,0,0,3.032.231Zm-2.995-1.079h2.907a1.365,1.365,0,0,0-1.422-.942A1.448,1.448,0,0,0,123.364,74.523Z" transform="translate(-49.136 -70.836)" fill="#fff"/><path d="M135.872,73.974a1.814,1.814,0,0,0-.568-.075c-1.042,0-1.734.424-1.734,1.51v2.015h-1.26V72.695h1.26v.836a1.949,1.949,0,0,1,1.778-.861,1.972,1.972,0,0,1,.524.062Z" transform="translate(-52.973 -70.873)" fill="#fff"/><path d="M138.75,76.026c0-.873.749-1.36,1.878-1.479l1.971-.206V74.3c0-.393-.349-.717-1.179-.717A1.487,1.487,0,0,0,140,74.3l-1.086-.368a2.6,2.6,0,0,1,2.552-1.366c1.485,0,2.346.605,2.346,1.753v1.859c0,.262.119.381.655.262v.942c-1.036.206-1.547-.125-1.747-.586a2.917,2.917,0,0,1-1.99.686C139.6,77.492,138.75,76.981,138.75,76.026Zm3.855-.786-1.784.2c-.555.062-.848.2-.848.549s.349.537.936.537c.774,0,1.691-.331,1.691-.961V75.24Z" transform="translate(-55.395 -70.836)" fill="#fff"/><path d="M158.819,69.95h1.572l-3.238,3.718v2.745H155.83V73.668l-3.25-3.718h1.61L156.5,72.6Z" transform="translate(-60.597 -69.85)" fill="#fff"/><path d="M168.711,75.028a2.779,2.779,0,1,1-2.751-2.458A2.533,2.533,0,0,1,168.711,75.028Zm-1.217,0a1.55,1.55,0,1,0-1.541,1.41A1.407,1.407,0,0,0,167.495,75.028Z" transform="translate(-64.588 -70.836)" fill="#fff"/><path d="M178.546,77.445h-1.26v-.593a2.21,2.21,0,0,1-1.7.692,1.967,1.967,0,0,1-2.053-2.152V72.71h1.26v2.464c0,.8.387,1.26,1.185,1.26a1.208,1.208,0,0,0,1.3-1.341V72.71h1.26v4.735Z" transform="translate(-68.477 -70.888)" fill="#fff"/><path d="M183.55,72.664h1.26v.593a2.268,2.268,0,0,1,1.728-.686,1.984,1.984,0,0,1,2.059,2.184v2.633h-1.26v-2.34c0-.811-.406-1.348-1.217-1.348a1.223,1.223,0,0,0-1.31,1.366v2.321h-1.26Z" transform="translate(-72.246 -70.836)" fill="#fff"/><path d="M195.769,79.1a2.815,2.815,0,0,1-2.664-1.241l1-.611a1.71,1.71,0,0,0,1.647.861c.892,0,1.666-.43,1.666-1.26v-.181a2.472,2.472,0,1,1-1.766-4.093,2.442,2.442,0,0,1,1.766.636v-.549h1.26v4.068C198.676,78.2,197.428,79.1,195.769,79.1Zm.106-5.515a1.377,1.377,0,1,0,0,2.726,1.447,1.447,0,0,0,1.6-1.348v-.037A1.443,1.443,0,0,0,195.875,73.581Z" transform="translate(-75.83 -70.836)" fill="#fff"/><path d="M212.01,71.092v5.315h-1.329V71.092H207.83V69.95h7.037v1.142Z" transform="translate(-81.378 -69.85)" fill="#fff"/><path d="M217.57,76.026c0-.873.749-1.36,1.878-1.479l1.971-.206V74.3c0-.393-.349-.717-1.179-.717a1.487,1.487,0,0,0-1.422.717l-1.086-.368a2.6,2.6,0,0,1,2.552-1.366c1.485,0,2.346.605,2.346,1.753v1.859c0,.262.119.381.655.262v.942c-1.036.206-1.547-.125-1.747-.586a2.917,2.917,0,0,1-1.99.686C218.425,77.492,217.57,76.981,217.57,76.026Zm3.849-.786-1.784.2c-.555.062-.848.2-.848.549s.349.537.936.537c.774,0,1.691-.331,1.691-.961V75.24Z" transform="translate(-85.042 -70.836)" fill="#fff"/><path d="M229.28,76.407h-1.26V69.95h1.26Z" transform="translate(-88.972 -69.85)" fill="#fff"/><path d="M235.829,75.6l1.073.462a2.653,2.653,0,0,1-2.527,1.429,2.531,2.531,0,0,1-2.795-2.464,2.557,2.557,0,0,1,2.789-2.458,2.4,2.4,0,0,1,2.62,2.408v.393H232.8a1.673,1.673,0,0,0,3.032.231Zm-2.995-1.079h2.907a1.365,1.365,0,0,0-1.422-.942A1.458,1.458,0,0,0,232.834,74.523Z" transform="translate(-90.311 -70.836)" fill="#fff"/><path d="M241.78,72.664h1.26v.593a2.268,2.268,0,0,1,1.728-.686,1.984,1.984,0,0,1,2.059,2.184v2.633h-1.26v-2.34c0-.811-.406-1.348-1.217-1.348a1.223,1.223,0,0,0-1.31,1.366v2.321h-1.26Z" transform="translate(-94.148 -70.836)" fill="#fff"/><path d="M252.015,72.952H250.88V71.9h1.135V70.55h1.242V71.9h2.015v1.054h-2.015v1.89c0,.555.306.749.961.749a3.029,3.029,0,0,0,1.036-.2l.218,1.036a4.627,4.627,0,0,1-1.528.268c-1.042,0-1.928-.43-1.928-1.647v-2.1Z" transform="translate(-97.571 -70.076)" fill="#fff"/><path d="M263.9,74.024a3.491,3.491,0,0,0,2.857,1.3c1.079,0,1.847-.324,1.847-.848,0-.611-.53-.668-2.346-.861-1.585-.181-2.795-.474-2.795-1.753,0-1.223,1.2-2.059,3.032-2.059a4.248,4.248,0,0,1,3.319,1.285l-.88.848a3.114,3.114,0,0,0-2.508-1c-1.154,0-1.672.368-1.672.8,0,.468.43.574,2.071.767,1.834.206,3.132.449,3.132,1.847s-1.41,2.121-3.238,2.121a4.675,4.675,0,0,1-3.7-1.5Z" transform="translate(-102.137 -69.794)" fill="#fff"/><path d="M275.57,69.95h1.26v2.321a2.268,2.268,0,0,1,1.728-.686,1.984,1.984,0,0,1,2.059,2.184V76.4h-1.26v-2.34c0-.811-.406-1.348-1.217-1.348a1.223,1.223,0,0,0-1.31,1.366V76.4h-1.26V69.95Z" transform="translate(-106.857 -69.85)" fill="#fff"/><path d="M290.671,75.028a2.779,2.779,0,1,1-2.751-2.458A2.533,2.533,0,0,1,290.671,75.028Zm-1.21,0a1.55,1.55,0,1,0-1.541,1.41A1.407,1.407,0,0,0,289.461,75.028Z" transform="translate(-110.461 -70.836)" fill="#fff"/><path d="M299.091,72.72l1.135,3.2,1.154-3.2h1.3l-1.865,4.729h-1.135l-1.16-3.151-1.16,3.151h-1.135L294.35,72.72h1.341l1.179,3.2,1.123-3.2Z" transform="translate(-113.921 -70.892)" fill="#fff"/><path d="M310.827,72.57a2.573,2.573,0,0,1,2.5,1.51l-1.054.512a1.494,1.494,0,0,0-1.447-.979,1.424,1.424,0,1,0,0,2.832,1.5,1.5,0,0,0,1.447-.979l1.042.53a2.7,2.7,0,1,1-2.483-3.425Z" transform="translate(-119.063 -70.836)" fill="#fff"/><path d="M317.43,76.026c0-.873.749-1.36,1.878-1.479l1.971-.206V74.3c0-.393-.349-.717-1.179-.717a1.487,1.487,0,0,0-1.422.717l-1.085-.368a2.6,2.6,0,0,1,2.552-1.366c1.485,0,2.346.605,2.346,1.753v1.859c0,.262.119.381.655.262v.942c-1.036.206-1.547-.125-1.747-.586a2.917,2.917,0,0,1-1.99.686C318.285,77.492,317.43,76.981,317.43,76.026Zm3.849-.786-1.784.2c-.555.062-.848.2-.848.549s.349.537.936.537c.774,0,1.691-.331,1.691-.961V75.24Z" transform="translate(-122.602 -70.836)" fill="#fff"/><path d="M327.9,75.681a2.692,2.692,0,0,0,2.059.836c.692,0,1.154-.156,1.154-.505s-.43-.362-1.522-.493c-1.185-.156-2.134-.362-2.134-1.366,0-.936.9-1.572,2.34-1.572a3.271,3.271,0,0,1,2.446.892l-.717.767a2.375,2.375,0,0,0-1.79-.686c-.7,0-1.042.187-1.042.468,0,.3.331.331,1.36.462,1.241.143,2.315.324,2.315,1.41s-1.1,1.61-2.458,1.61a3.644,3.644,0,0,1-2.726-.992Z" transform="translate(-126.269 -70.839)" fill="#fff"/><path d="M340.768,75.6l1.073.462a2.653,2.653,0,0,1-2.527,1.429,2.531,2.531,0,0,1-2.795-2.464,2.557,2.557,0,0,1,2.789-2.458,2.4,2.4,0,0,1,2.62,2.408v.393h-4.192a1.673,1.673,0,0,0,3.032.231Zm-3-1.079h2.907a1.365,1.365,0,0,0-1.422-.942A1.458,1.458,0,0,0,337.768,74.523Z" transform="translate(-129.782 -70.836)" fill="#fff"/></g></g></svg>