<svg xmlns="http://www.w3.org/2000/svg" width="38.313" height="38.336" viewBox="0 0 38.313 38.336"><path d="M18.345,8.267,29.972,19.909,36,13.88l-2.1-2.1A5.307,5.307,0,0,1,25.5,7.831a5.141,5.141,0,0,1,.61-2.8c.128-.243.391-.515.348-.723-.049-.237-.371-.419-.575-.623L24.4,2.209l-6.06,6.058ZM28.708,21.195,17.1,9.59,2.25,24.44c.615.615,1.267,1.255,1.9,1.91.152.156.241.146.419.03a5.171,5.171,0,0,1,4.467-.668,5.059,5.059,0,0,1,3.019,2.369,5.191,5.191,0,0,1,.6,3.851,5.538,5.538,0,0,1-.862,1.952L13.9,36l14.805-14.8ZM0,24.307c.086-.074.177-.144.258-.224Q12.173,12.172,24.086.258c.08-.08.15-.172.224-.258h.139c.558.569,1.112,1.141,1.673,1.706.853.858,1.711,1.711,2.616,2.616a3.851,3.851,0,0,0-1.633,3.771,3.607,3.607,0,0,0,1.263,2.246,3.87,3.87,0,0,0,5.653-.776l4.291,4.3c-.078.1-.132.163-.189.23-.022.026-.049.049-.073.074Q26.131,26.11,14.211,38.054c-.089.089-.167.188-.25.282h-.069c-.075-.086-.144-.178-.224-.258q-1.773-1.776-3.55-3.549c-.176-.176-.359-.346-.541-.522a3.864,3.864,0,0,0,.764-5.643A3.607,3.607,0,0,0,8.094,27.1a3.855,3.855,0,0,0-3.773,1.636c-.9-.907-1.757-1.766-2.614-2.619C1.142,25.558.569,25,0,24.446Z" fill="#fff"/></svg>